<?xml version="1.0" standalone="no"?>
<!DOCTYPE svg PUBLIC "-//W3C//DTD SVG 20010904//EN"
 "http://www.w3.org/TR/2001/REC-SVG-20010904/DTD/svg10.dtd">
<svg version="1.0" xmlns="http://www.w3.org/2000/svg"
 width="1080.000000pt" height="1080.000000pt" viewBox="0 0 1080.000000 1080.000000"
 preserveAspectRatio="xMidYMid meet">
<metadata>
Created by potrace 1.14, written by Peter Selinger 2001-2017
</metadata>
<g transform="translate(0.000000,1080.000000) scale(0.100000,-0.100000)"
fill="#000000" stroke="none">
<path d="M5158 10675 c-2 -2 -50 -6 -108 -10 -58 -3 -123 -8 -145 -11 -22 -3
-58 -7 -80 -9 -44 -4 -149 -16 -180 -20 -11 -1 -20 -3 -20 -5 0 -1 -18 -3 -40
-5 -22 -2 -62 -8 -90 -14 -78 -17 -88 -19 -125 -26 -46 -7 -75 -13 -75 -15 0
-1 -9 -3 -20 -5 -32 -4 -66 -12 -115 -25 -25 -7 -52 -14 -60 -15 -8 -2 -51
-13 -95 -25 -44 -12 -91 -24 -105 -26 -13 -3 -27 -8 -30 -12 -3 -4 -14 -9 -25
-10 -43 -8 -270 -86 -277 -96 -4 -6 -8 -8 -8 -5 0 7 -148 -48 -165 -61 -5 -4
-25 -11 -42 -15 -18 -3 -33 -11 -33 -16 0 -5 -3 -8 -7 -7 -5 1 -30 -8 -57 -20
-27 -12 -51 -22 -53 -22 -13 0 -329 -164 -335 -174 -4 -6 -8 -7 -8 -3 0 4 -17
-4 -37 -18 -21 -14 -43 -25 -49 -25 -7 0 -14 -4 -16 -9 -1 -5 -10 -11 -18 -13
-8 -2 -17 -6 -20 -9 -3 -3 -38 -25 -77 -48 -40 -24 -73 -48 -73 -54 0 -6 -3
-7 -6 -4 -7 7 -63 -29 -76 -48 -4 -5 -8 -6 -8 -2 0 4 -6 3 -12 -2 -53 -44 -76
-59 -96 -65 -12 -4 -20 -12 -17 -17 4 -5 1 -9 -6 -9 -7 0 -32 -16 -55 -36 -24
-19 -44 -32 -44 -27 0 4 -4 3 -8 -2 -4 -6 -36 -33 -72 -60 -36 -28 -70 -54
-76 -60 -6 -5 -30 -26 -54 -45 -24 -19 -52 -43 -62 -52 -10 -10 -23 -18 -30
-18 -6 0 -8 -3 -5 -7 4 -3 -6 -16 -21 -27 -50 -38 -104 -89 -252 -236 -144
-144 -189 -192 -285 -305 -27 -32 -64 -75 -80 -94 -17 -20 -46 -56 -65 -81
-19 -25 -38 -47 -42 -48 -5 -2 -6 -8 -2 -13 3 -5 1 -9 -4 -9 -5 0 -29 -28 -53
-62 -23 -35 -46 -65 -49 -68 -3 -3 -28 -39 -55 -80 -27 -41 -56 -81 -62 -88
-7 -7 -13 -19 -13 -27 0 -7 -4 -15 -8 -17 -12 -4 -95 -142 -177 -293 -21 -38
-42 -71 -47 -73 -4 -2 -8 -7 -8 -11 0 -5 -33 -77 -73 -162 -69 -144 -97 -206
-116 -254 -5 -11 -13 -31 -19 -45 -30 -68 -63 -154 -92 -240 -17 -52 -34 -102
-38 -110 -3 -8 -6 -17 -7 -20 -1 -3 -4 -12 -8 -20 -7 -20 -19 -75 -16 -75 1 0
-3 -10 -10 -22 -10 -20 -47 -147 -55 -193 -2 -8 -6 -22 -10 -31 -4 -9 -8 -27
-10 -40 -2 -13 -6 -31 -9 -39 -3 -8 -8 -28 -11 -45 -3 -16 -14 -73 -25 -125
-11 -52 -18 -96 -16 -98 2 -3 0 -12 -4 -21 -5 -9 -11 -38 -15 -66 -3 -27 -8
-59 -10 -70 -11 -57 -21 -138 -30 -250 -3 -33 -5 -60 -6 -60 -8 0 -15 -204
-15 -440 1 -267 5 -387 20 -520 3 -27 8 -72 10 -100 11 -104 20 -178 29 -225
3 -19 8 -46 10 -60 3 -14 5 -25 6 -25 1 0 3 -13 4 -30 4 -45 27 -157 61 -295
9 -36 18 -78 21 -93 2 -16 6 -33 9 -38 4 -5 8 -19 11 -31 8 -33 9 -37 28 -103
10 -33 19 -64 20 -70 1 -5 11 -35 21 -65 11 -30 20 -58 21 -62 1 -5 3 -10 4
-13 1 -3 3 -8 4 -12 5 -27 111 -299 118 -301 4 -2 8 -10 8 -17 0 -7 10 -35 22
-62 12 -26 22 -50 23 -53 14 -41 152 -319 209 -420 21 -36 40 -73 43 -82 3
-10 9 -18 14 -18 5 0 9 -6 9 -13 0 -7 9 -23 20 -35 11 -12 20 -26 20 -32 0
-12 41 -73 53 -78 4 -2 7 -8 7 -13 0 -13 100 -163 111 -167 5 -2 9 -9 9 -15 0
-7 16 -32 35 -56 19 -24 35 -47 35 -50 0 -3 10 -17 23 -31 12 -14 39 -48 59
-75 21 -28 42 -55 47 -61 5 -7 44 -53 86 -103 42 -50 81 -91 87 -91 6 0 9 -3
5 -6 -8 -8 43 -63 218 -239 145 -144 294 -285 304 -285 3 0 27 -20 52 -43 57
-52 72 -63 132 -106 26 -19 47 -38 47 -43 0 -4 4 -8 10 -8 5 0 44 -26 87 -58
88 -66 390 -266 403 -267 3 0 16 -7 30 -16 72 -45 153 -91 220 -125 41 -21 77
-42 78 -46 2 -4 10 -8 17 -8 7 0 45 -16 85 -36 66 -33 100 -47 125 -55 6 -1
36 -16 68 -32 33 -15 68 -30 78 -32 10 -2 25 -7 32 -12 6 -4 17 -9 22 -10 37
-9 85 -29 85 -35 0 -5 7 -8 15 -8 9 0 32 -7 53 -16 20 -10 42 -18 47 -19 6 -1
13 -3 18 -5 4 -1 10 -3 15 -4 4 -1 61 -19 126 -40 66 -21 125 -39 130 -41 6
-1 18 -5 26 -8 13 -4 45 -12 133 -33 9 -2 25 -6 35 -9 58 -17 228 -53 277 -60
17 -2 30 -4 30 -5 0 -4 135 -27 205 -35 25 -3 61 -7 80 -10 36 -5 91 -11 190
-20 248 -24 745 -24 950 -1 25 3 70 8 100 11 30 2 66 7 80 9 14 3 52 7 85 11
33 3 69 8 80 11 11 2 34 6 50 8 17 3 41 7 55 10 14 3 36 7 50 10 87 15 110 20
158 32 30 7 57 13 60 12 4 -1 14 2 22 5 8 3 71 20 140 37 69 17 211 60 315 96
105 36 196 65 203 66 6 1 12 6 12 11 0 6 3 8 6 4 4 -3 24 3 45 13 21 11 42 20
47 20 5 0 31 10 58 22 27 12 51 23 54 23 3 0 15 6 28 13 12 7 22 10 22 7 0 -4
7 1 16 9 8 9 22 16 30 16 17 0 56 21 66 35 4 6 8 7 8 3 0 -4 60 23 133 61 176
91 201 105 207 112 3 3 20 12 38 20 17 8 32 17 32 21 0 5 7 8 15 8 8 0 15 5
15 10 0 6 3 9 8 8 4 -1 39 18 77 42 39 25 73 44 78 42 4 -1 7 2 7 7 0 5 17 20
38 32 75 47 255 175 288 207 8 7 14 10 14 6 0 -4 6 -1 13 7 6 9 32 31 57 50
65 49 80 61 106 87 13 12 26 22 29 22 3 0 21 16 41 35 19 19 39 35 45 35 6 0
7 4 4 10 -3 5 -2 10 3 10 5 0 44 33 87 72 218 202 444 453 624 693 45 61 89
118 97 128 7 9 14 21 14 26 0 4 12 21 27 37 15 16 25 29 23 29 -2 0 22 40 53
88 31 48 57 92 57 97 0 4 3 10 8 12 10 4 122 194 122 206 0 6 4 12 8 14 8 3
192 369 192 381 0 4 13 34 29 67 16 33 27 60 25 60 -3 0 3 15 13 32 9 18 18
36 19 41 1 4 2 8 4 10 1 1 3 9 5 18 1 9 10 32 18 50 29 62 126 357 120 363 -4
3 -1 6 6 6 7 0 9 5 6 10 -4 6 -1 18 6 26 6 8 9 17 6 20 -3 3 1 21 9 40 8 19
14 36 14 39 0 3 0 6 1 8 2 6 9 34 13 52 2 11 5 20 6 20 1 0 3 9 5 20 1 11 9
48 18 82 8 34 12 64 9 67 -3 3 -1 6 4 6 5 0 10 8 10 18 1 17 9 66 19 112 3 14
7 41 10 60 2 19 4 35 5 35 4 0 26 150 36 235 2 19 6 53 9 75 17 144 29 365 28
535 0 152 -10 405 -18 465 -2 22 -7 72 -11 110 -5 68 -8 93 -18 165 -2 19 -7
60 -11 90 -4 30 -9 58 -11 62 -2 3 -7 26 -9 50 -3 24 -7 50 -9 58 -1 8 -6 33
-11 55 -4 22 -10 49 -12 60 -3 11 -6 29 -8 40 -3 11 -6 27 -8 35 -2 8 -7 33
-11 55 -4 22 -10 47 -13 55 -3 8 -7 22 -9 30 -5 28 -26 105 -40 148 -8 24 -12
48 -9 53 4 5 1 9 -4 9 -6 0 -11 6 -11 14 0 17 -57 196 -70 218 -6 10 -10 27
-10 37 0 11 -4 23 -10 26 -5 3 -10 14 -10 24 0 9 -9 37 -21 60 -11 24 -22 52
-24 62 -2 10 -9 28 -16 41 -8 13 -14 25 -14 28 -1 3 -9 22 -18 44 -9 21 -17
40 -17 41 0 23 -193 406 -270 535 -33 56 -60 106 -60 111 0 5 -4 9 -10 9 -5 0
-10 5 -10 10 0 6 -18 38 -40 71 -22 33 -40 64 -40 69 0 5 -4 10 -8 12 -5 2
-37 45 -71 96 -35 52 -69 101 -76 110 -8 10 -47 60 -87 112 -70 92 -109 139
-154 186 -12 13 -24 27 -25 33 -9 22 -246 269 -381 396 -163 152 -275 248
-403 344 -38 29 -84 64 -102 78 -18 13 -33 23 -35 21 -2 -2 -10 3 -18 10 -47
40 -76 62 -82 62 -4 0 -13 6 -20 13 -16 16 -284 183 -348 218 -25 13 -47 26
-50 29 -3 3 -27 16 -55 30 -27 14 -68 36 -90 49 -22 14 -41 24 -43 23 -1 -1
-28 11 -60 27 -72 36 -411 182 -432 187 -7 1 -39 13 -80 30 -19 8 -44 16 -55
19 -18 4 -190 59 -225 72 -8 3 -19 7 -25 8 -5 2 -30 8 -55 16 -48 13 -51 14
-90 23 -14 3 -49 12 -79 20 -30 8 -58 13 -63 10 -4 -3 -8 -1 -8 3 0 8 -110 33
-165 38 -11 2 -27 5 -35 8 -8 4 -31 8 -50 11 -19 2 -35 5 -35 6 0 1 -11 3 -25
5 -30 4 -86 12 -120 19 -14 3 -52 8 -85 11 -33 3 -73 8 -90 10 -83 10 -197 18
-257 19 -38 1 -68 3 -68 7 0 5 -497 9 -502 4z m582 -329 c52 -4 118 -9 145
-12 28 -3 64 -8 80 -9 79 -9 132 -16 155 -20 14 -3 50 -7 80 -11 30 -3 59 -9
65 -12 5 -3 16 -7 25 -8 60 -6 113 -15 119 -18 4 -3 22 -8 39 -11 18 -3 69
-14 114 -26 46 -11 97 -23 113 -25 17 -3 32 -10 33 -15 2 -5 7 -7 12 -4 19 12
558 -175 598 -207 6 -6 12 -7 12 -2 0 4 5 3 12 -4 7 -7 20 -12 30 -12 10 0 18
-4 18 -10 0 -5 7 -10 15 -10 18 0 108 -42 117 -55 4 -5 8 -7 8 -3 0 6 193 -90
260 -130 16 -10 75 -44 132 -76 57 -33 108 -64 113 -68 6 -5 44 -30 86 -57 78
-50 332 -234 359 -261 9 -8 28 -24 44 -35 15 -11 38 -29 50 -40 13 -11 51 -45
86 -75 82 -71 204 -185 246 -230 18 -20 64 -67 101 -106 109 -113 143 -152
143 -164 0 -6 5 -8 10 -5 6 3 10 0 10 -7 0 -8 9 -20 20 -28 11 -8 20 -20 20
-27 0 -7 4 -13 9 -13 5 0 28 -26 52 -57 24 -32 52 -67 62 -77 9 -11 17 -25 17
-30 0 -6 9 -17 20 -24 11 -7 20 -19 20 -27 0 -8 3 -15 8 -15 4 0 23 -25 42
-55 19 -30 38 -54 43 -55 4 0 7 -7 7 -15 0 -8 5 -15 10 -15 6 0 10 -7 10 -15
0 -8 4 -15 9 -15 5 0 13 -9 16 -20 3 -11 12 -26 18 -32 18 -20 137 -217 137
-228 0 -6 3 -10 8 -10 4 0 12 -10 18 -23 6 -12 49 -96 95 -187 72 -142 103
-206 149 -315 5 -11 19 -45 30 -75 30 -74 38 -96 49 -122 6 -13 20 -54 33 -93
12 -38 25 -72 28 -75 3 -3 7 -16 8 -30 2 -14 9 -31 14 -37 6 -7 7 -13 3 -13
-4 0 -2 -7 5 -15 7 -8 10 -15 7 -15 -4 0 0 -18 8 -40 8 -22 15 -44 16 -48 3
-12 6 -26 19 -72 7 -25 14 -54 16 -65 1 -11 3 -20 4 -20 1 0 3 -7 5 -15 2 -8
7 -26 10 -40 3 -14 8 -38 11 -55 3 -16 9 -43 14 -60 10 -32 45 -221 55 -295 3
-25 9 -65 12 -90 4 -25 7 -57 7 -72 1 -16 3 -28 6 -28 3 0 6 -28 8 -63 1 -34
5 -78 7 -97 8 -58 18 -326 18 -470 -1 -191 -12 -361 -39 -570 -3 -25 -7 -61
-8 -81 -2 -20 -5 -40 -8 -45 -5 -8 -13 -54 -24 -139 -1 -11 -3 -20 -4 -20 -2
0 -8 -25 -15 -70 -3 -22 -10 -53 -15 -70 -5 -16 -23 -86 -40 -155 -17 -69 -33
-134 -36 -145 -3 -11 -6 -24 -8 -30 -1 -5 -8 -28 -15 -50 -14 -46 -18 -57 -20
-67 -1 -4 -8 -23 -17 -43 -8 -19 -14 -36 -13 -37 0 -2 -5 -16 -11 -33 -7 -16
-13 -34 -14 -40 -3 -17 -49 -138 -63 -164 -6 -14 -10 -28 -7 -33 3 -4 0 -8 -5
-8 -6 0 -11 -7 -11 -15 0 -9 -7 -27 -16 -40 -9 -14 -14 -25 -11 -25 3 0 -7
-26 -22 -57 -15 -32 -37 -78 -49 -102 -12 -24 -19 -48 -16 -53 3 -4 1 -8 -5
-8 -8 0 -47 -74 -51 -98 -1 -4 -7 -14 -13 -22 -7 -8 -19 -28 -28 -45 -53 -98
-88 -159 -131 -227 -26 -43 -48 -82 -48 -88 0 -5 -4 -10 -8 -10 -5 0 -15 -12
-23 -27 -12 -24 -89 -140 -111 -168 -5 -5 -40 -53 -79 -105 -39 -52 -78 -104
-87 -115 -9 -11 -37 -45 -62 -75 -133 -162 -383 -422 -530 -550 -35 -30 -68
-60 -74 -65 -6 -6 -36 -30 -66 -55 -30 -25 -57 -47 -60 -50 -3 -3 -45 -36 -95
-73 -49 -37 -95 -71 -101 -75 -5 -5 -30 -22 -55 -38 -24 -16 -46 -31 -49 -34
-8 -8 -160 -110 -165 -110 -2 0 -31 -18 -64 -40 -33 -22 -63 -40 -66 -40 -3 0
-22 -11 -43 -24 -62 -39 -332 -176 -332 -168 0 4 -4 3 -8 -3 -6 -9 -79 -46
-85 -44 -1 1 -20 -8 -42 -20 -22 -11 -45 -21 -52 -21 -7 0 -13 -4 -13 -8 0 -5
-6 -9 -12 -9 -7 0 -33 -9 -58 -20 -25 -11 -48 -20 -52 -21 -10 -3 -114 -41
-148 -55 -14 -6 -30 -11 -36 -12 -7 -2 -56 -17 -110 -35 -55 -18 -103 -33
-109 -35 -5 -1 -17 -4 -25 -8 -16 -5 -127 -35 -163 -43 -38 -9 -52 -12 -52
-14 0 -1 -13 -4 -65 -14 -14 -2 -25 -5 -25 -6 0 -2 -17 -6 -65 -14 -19 -3 -52
-10 -72 -15 -21 -5 -38 -7 -38 -4 0 2 -6 1 -12 -4 -7 -4 -24 -8 -38 -9 -14 -1
-38 -5 -54 -8 -16 -3 -50 -8 -75 -12 -25 -3 -57 -8 -71 -10 -14 -2 -59 -7
-100 -10 -102 -9 -125 -12 -125 -13 0 -4 -212 -13 -335 -14 -76 -1 -138 -6
-142 -12 -5 -7 -8 -6 -8 0 0 7 -43 12 -112 14 -62 1 -131 4 -153 6 -76 5 -190
16 -230 21 -22 3 -56 7 -75 9 -19 2 -53 6 -75 10 -22 3 -58 8 -80 10 -22 3
-51 7 -65 10 -49 11 -66 15 -140 30 -41 9 -88 18 -105 21 -16 3 -42 10 -57 15
-15 6 -32 8 -37 4 -6 -3 -11 -1 -11 6 0 7 -2 10 -5 7 -5 -5 -70 12 -198 52
-15 5 -28 9 -30 9 -8 0 -110 31 -132 41 -30 12 -58 23 -75 27 -27 7 -55 16
-95 33 -11 5 -63 25 -114 45 -122 48 -217 91 -366 167 -187 95 -225 116 -300
164 -38 24 -78 47 -87 50 -10 4 -18 10 -18 15 0 5 -5 9 -11 9 -6 0 -58 33
-116 72 -57 40 -112 78 -121 83 -9 6 -21 16 -25 22 -4 7 -12 13 -18 13 -10 0
-16 4 -61 42 -14 13 -36 30 -48 38 -27 18 -127 99 -150 120 -9 8 -40 35 -69
59 -61 52 -98 86 -239 222 -56 55 -102 102 -102 104 0 3 -21 26 -48 53 -26 26
-72 76 -102 112 -30 36 -57 67 -61 70 -3 3 -35 43 -73 90 -37 47 -74 93 -82
103 -8 9 -14 20 -14 23 0 2 -9 15 -20 26 -30 33 -180 255 -180 267 0 6 -4 11
-8 11 -4 0 -26 30 -47 67 -22 37 -44 75 -50 85 -71 119 -255 476 -255 493 0 3
-10 27 -21 53 -36 80 -47 105 -64 152 -10 25 -23 59 -30 75 -10 24 -45 125
-50 145 -1 3 -5 12 -8 20 -16 35 -95 309 -112 385 -2 11 -6 29 -9 40 -5 24
-22 99 -32 140 -3 17 -8 44 -10 60 -2 17 -8 48 -13 70 -9 38 -16 82 -27 165
-2 19 -7 51 -10 70 -3 19 -8 58 -10 85 -3 28 -7 75 -10 105 -13 137 -17 253
-18 495 -1 257 7 412 29 555 6 44 17 127 20 160 2 14 4 25 5 25 1 0 3 9 4 20
9 63 18 112 22 127 3 9 7 27 9 40 3 13 10 48 16 78 6 30 12 60 13 67 1 7 5 15
8 19 4 3 4 12 1 20 -3 8 -1 14 4 14 6 0 10 13 11 30 0 16 4 35 9 42 4 7 8 18
8 23 1 18 28 120 36 136 4 9 10 27 13 40 2 13 11 43 20 67 8 23 16 46 17 50 2
10 5 19 34 97 15 39 31 86 37 105 5 19 14 40 18 45 4 6 13 28 20 50 7 22 21
55 32 73 10 18 18 37 18 42 0 9 112 251 132 285 6 11 32 58 56 105 25 47 50
92 57 100 7 8 15 22 19 30 3 8 17 33 31 55 14 22 34 57 45 78 11 20 25 37 31
37 6 0 8 4 5 8 -3 5 2 18 12 28 9 10 23 31 31 46 8 15 21 36 30 45 9 10 27 35
40 56 12 20 27 37 32 37 5 0 8 3 7 8 -2 6 105 159 121 172 4 3 22 25 41 50 41
53 75 93 112 132 16 16 28 31 28 34 0 3 10 15 23 27 13 12 33 35 45 51 12 16
22 25 22 21 0 -3 10 5 22 20 32 37 219 225 224 225 2 0 21 17 42 38 21 20 67
62 102 92 34 30 69 61 76 68 8 7 14 11 14 8 0 -3 12 6 28 21 38 36 329 253
339 253 4 0 19 9 33 21 38 30 131 89 141 89 5 0 9 5 9 10 0 6 6 10 14 10 8 0
21 6 28 13 8 6 23 17 33 23 73 39 91 50 95 54 3 3 30 18 60 34 30 16 83 44
118 62 34 18 62 30 62 26 0 -4 4 -2 8 4 8 12 84 49 95 46 4 -1 7 2 7 8 0 5 5
10 11 10 5 0 36 12 67 26 59 27 230 95 247 98 6 1 19 7 30 13 20 10 311 108
340 113 3 1 19 6 37 11 18 6 40 12 48 14 8 2 51 13 95 24 44 11 91 22 105 25
14 3 56 13 95 21 38 9 75 13 82 11 7 -3 13 -1 13 4 0 5 26 12 58 16 31 3 64 8
72 9 74 13 108 18 139 20 20 2 36 4 36 5 0 4 135 16 290 26 61 4 111 7 112 8
5 4 458 -3 543 -8z"/>
<path d="M5218 10295 c-2 -2 -55 -6 -118 -9 -165 -10 -225 -15 -335 -31 -16
-2 -50 -6 -75 -9 -25 -3 -79 -12 -120 -20 -41 -8 -91 -17 -110 -20 -19 -4 -46
-9 -60 -12 -14 -2 -34 -6 -45 -8 -11 -2 -20 -4 -20 -5 0 -3 -12 -5 -60 -14
-16 -3 -39 -8 -50 -11 -11 -3 -45 -12 -75 -20 -30 -7 -89 -24 -130 -37 -88
-27 -77 -24 -115 -34 -16 -4 -34 -10 -40 -14 -5 -3 -13 -6 -17 -7 -5 -1 -9 -2
-10 -4 -2 -1 -11 -3 -21 -5 -10 -2 -26 -7 -35 -11 -9 -4 -19 -8 -22 -9 -3 -1
-12 -4 -20 -8 -8 -3 -44 -16 -80 -28 -36 -13 -68 -27 -71 -32 -3 -5 -9 -8 -13
-8 -17 2 -66 -12 -66 -19 0 -4 -12 -11 -27 -14 -36 -9 -434 -205 -451 -223 -8
-7 -18 -11 -23 -8 -5 4 -9 2 -9 -3 0 -5 -18 -17 -40 -27 -22 -10 -40 -22 -40
-27 0 -5 -4 -7 -8 -4 -5 3 -19 -4 -30 -15 -12 -10 -24 -19 -27 -19 -15 1 -337
-216 -343 -232 -2 -4 -10 -8 -18 -8 -8 0 -17 -7 -20 -15 -4 -8 -12 -15 -20
-15 -8 0 -14 -4 -14 -10 0 -5 -5 -10 -10 -10 -6 0 -23 -11 -38 -24 -15 -13
-70 -59 -122 -102 -52 -44 -110 -94 -129 -111 -20 -18 -39 -33 -44 -33 -4 0
-5 -4 -2 -10 3 -5 1 -10 -5 -10 -6 0 -79 -67 -162 -150 -83 -82 -148 -150
-145 -150 2 0 -16 -22 -42 -49 -25 -27 -62 -68 -81 -92 -19 -24 -45 -55 -57
-69 -40 -44 -43 -50 -41 -55 2 -2 -7 -12 -19 -20 -13 -9 -23 -23 -23 -31 0 -8
-4 -14 -8 -14 -5 0 -26 -26 -48 -57 -21 -32 -41 -60 -44 -63 -3 -3 -23 -30
-45 -60 -22 -30 -43 -56 -47 -58 -5 -2 -8 -10 -8 -19 0 -8 -6 -21 -12 -28 -25
-27 -38 -44 -38 -48 0 -2 -31 -55 -70 -118 -38 -63 -86 -145 -106 -184 -20
-38 -47 -88 -60 -111 -13 -22 -21 -44 -17 -47 3 -4 1 -7 -5 -7 -6 0 -14 -10
-17 -21 -4 -12 -24 -58 -45 -103 -56 -121 -80 -174 -80 -179 0 -3 -10 -26 -22
-53 -12 -27 -22 -51 -23 -54 0 -3 -4 -11 -8 -17 -5 -7 -6 -13 -3 -13 3 0 -6
-25 -19 -55 -14 -30 -25 -58 -26 -63 -1 -4 -3 -11 -5 -17 -2 -5 -13 -39 -25
-75 -12 -36 -23 -78 -26 -95 -3 -16 -8 -34 -13 -40 -4 -5 -11 -26 -16 -45 -4
-19 -9 -39 -11 -45 -4 -16 -33 -126 -43 -164 -5 -19 -7 -39 -4 -43 3 -4 0 -8
-6 -8 -6 0 -9 -4 -6 -8 3 -5 -1 -33 -9 -63 -8 -30 -17 -74 -20 -99 -4 -24 -9
-48 -11 -51 -2 -4 -6 -27 -9 -50 -3 -24 -7 -55 -10 -69 -3 -14 -7 -45 -10 -70
-3 -25 -9 -72 -14 -105 -5 -33 -8 -75 -7 -92 1 -18 -1 -33 -4 -33 -9 0 -13
-136 -13 -395 0 -265 9 -463 27 -605 3 -19 8 -60 11 -90 3 -30 8 -66 11 -80 3
-14 7 -34 9 -45 2 -11 6 -36 9 -55 3 -19 10 -60 16 -90 6 -30 13 -64 15 -75 1
-11 10 -51 19 -90 22 -94 24 -104 30 -123 3 -9 8 -33 11 -52 3 -19 11 -38 18
-42 7 -4 9 -8 6 -8 -6 0 -3 -17 14 -85 13 -50 74 -221 80 -223 4 -2 5 -8 2
-12 -3 -5 2 -26 11 -47 27 -61 46 -112 50 -132 1 -8 8 -17 14 -21 7 -4 11 -10
10 -14 -1 -4 4 -21 11 -39 6 -18 13 -34 13 -37 4 -12 42 -94 107 -227 38 -78
69 -147 69 -152 0 -6 4 -11 8 -11 5 0 14 -16 22 -35 8 -19 17 -35 20 -35 3 0
12 -16 20 -35 8 -19 17 -35 20 -35 4 0 17 -22 30 -50 13 -27 27 -50 32 -50 4
0 8 -5 8 -10 0 -6 23 -44 50 -85 28 -41 50 -79 50 -85 0 -5 4 -10 9 -10 5 0
24 -25 42 -55 18 -30 37 -55 41 -55 4 0 8 -4 8 -10 0 -9 14 -28 45 -64 6 -6
21 -28 35 -48 14 -21 28 -38 33 -38 4 0 7 -4 7 -10 0 -6 8 -18 18 -28 9 -10
35 -40 57 -67 43 -53 103 -123 144 -169 36 -41 333 -336 368 -366 16 -14 58
-50 93 -80 35 -30 68 -59 74 -65 6 -5 56 -44 111 -85 55 -41 102 -77 105 -80
11 -12 251 -174 270 -183 8 -4 47 -27 85 -52 39 -25 86 -52 105 -62 19 -9 37
-19 40 -22 3 -4 19 -13 35 -21 17 -8 41 -21 54 -29 13 -9 30 -16 38 -17 8 -2
23 -10 34 -20 10 -9 19 -14 19 -10 0 4 13 -2 29 -13 16 -12 34 -21 40 -21 6 0
25 -8 43 -18 18 -10 89 -42 158 -71 171 -71 167 -70 193 -80 44 -19 203 -73
241 -82 22 -6 44 -13 50 -17 6 -3 16 -8 21 -9 6 -1 28 -7 50 -13 22 -6 45 -12
50 -13 6 -1 15 -5 20 -9 6 -3 29 -9 52 -13 24 -4 45 -11 49 -16 3 -5 10 -7 15
-3 6 3 22 1 37 -5 15 -6 41 -13 57 -16 71 -11 101 -18 110 -24 6 -4 22 -7 38
-6 15 0 27 -2 27 -5 0 -3 8 -6 18 -6 24 -1 130 -18 182 -29 14 -3 50 -7 80
-10 30 -2 55 -5 55 -5 0 -1 18 -3 40 -5 22 -2 63 -7 90 -10 190 -21 855 -25
855 -5 0 3 15 6 33 6 64 3 202 17 277 30 19 3 45 7 57 9 35 5 106 17 128 22
11 2 31 6 45 8 14 2 57 11 95 20 39 9 78 17 88 18 9 1 17 4 17 8 0 4 8 6 18 4
9 -1 22 0 27 4 6 3 15 6 20 7 6 1 37 9 70 18 33 9 67 19 75 21 8 2 36 10 63
18 26 8 47 12 47 9 0 -4 4 -2 8 5 4 6 19 14 34 17 14 2 36 9 47 16 12 6 21 9
21 6 0 -2 24 5 53 16 28 10 57 21 62 22 6 2 24 9 40 15 17 7 35 14 40 15 6 1
30 12 55 23 25 11 62 26 83 34 20 7 37 16 37 19 0 4 6 7 13 7 6 0 52 19 100
42 49 22 93 41 98 41 5 0 9 5 9 10 0 6 3 9 8 8 7 -2 57 23 177 87 120 65 130
70 135 76 3 3 12 9 20 12 8 4 29 16 45 27 17 11 39 24 50 29 12 5 27 16 34 25
7 9 17 16 22 16 17 0 370 255 377 272 2 4 8 8 13 8 5 0 17 8 27 17 10 10 43
38 73 63 78 65 137 118 191 171 26 25 49 45 50 45 2 -1 22 17 44 41 23 24 40
43 37 43 -2 0 10 12 29 28 18 15 34 30 36 34 2 4 33 38 70 77 113 117 282 322
282 341 0 6 4 9 9 6 4 -3 17 10 27 29 10 19 21 35 24 35 3 0 14 15 25 32 20
35 30 48 58 79 9 10 17 21 17 24 0 6 49 83 65 102 23 28 30 40 33 53 2 8 7 17
11 20 7 5 101 158 101 165 0 2 19 36 43 77 37 63 129 244 132 258 0 3 7 16 15
30 8 14 15 27 15 30 3 21 31 80 37 80 4 0 7 3 6 8 -3 7 14 50 50 132 9 19 17
40 18 45 1 6 8 24 15 40 6 17 13 35 15 40 1 6 17 51 34 100 18 50 33 95 34
100 1 6 4 15 8 20 3 6 9 26 13 45 4 19 10 40 13 45 7 10 11 28 14 58 1 9 5 17
8 17 4 0 7 6 7 13 1 6 8 41 18 77 9 36 17 73 16 82 0 10 5 20 10 23 5 4 7 10
5 14 -3 4 1 31 9 59 7 29 11 52 8 52 -3 0 0 6 6 13 6 8 9 16 6 19 -3 2 -1 19
5 36 5 18 11 54 15 80 7 52 13 87 15 87 1 0 3 18 5 40 2 22 6 54 9 70 7 36 18
145 20 197 0 21 3 38 6 38 18 0 15 590 -4 785 -3 28 -8 77 -11 110 -3 33 -8
74 -10 90 -3 17 -7 53 -10 80 -2 28 -6 59 -8 70 -3 11 -7 41 -11 66 -7 45 -11
70 -21 119 -14 72 -19 95 -20 100 -5 18 -19 77 -37 150 -27 113 -52 204 -90
325 -18 55 -33 102 -33 105 -2 7 -15 40 -25 65 -4 11 -17 45 -29 75 -11 30
-26 69 -32 85 -7 17 -13 32 -14 35 -3 9 -22 54 -40 95 -10 22 -19 42 -20 45 0
3 -13 30 -28 61 -15 31 -27 61 -27 67 0 7 -4 12 -10 12 -5 0 -10 9 -10 20 0
11 -3 20 -7 20 -8 0 -33 48 -33 63 0 5 -7 15 -15 24 -8 8 -13 19 -10 24 4 5 2
9 -3 9 -8 0 -42 64 -41 76 0 4 -4 10 -9 13 -5 3 -21 29 -36 56 -35 64 -46 83
-73 122 -13 17 -23 34 -23 37 0 4 -16 29 -35 56 -19 27 -35 54 -35 58 0 5 -9
17 -20 27 -11 10 -20 22 -20 26 0 5 -6 17 -14 26 -8 10 -43 56 -78 103 -35 47
-69 91 -75 98 -7 7 -13 16 -13 20 0 4 -12 21 -28 37 -15 17 -49 57 -76 90 -27
33 -58 69 -68 80 -10 11 -46 51 -81 89 -108 118 -258 266 -345 339 -19 15 -30
27 -25 27 4 1 -4 8 -19 16 -16 8 -28 19 -28 24 0 6 -4 10 -10 10 -5 0 -23 14
-40 31 -16 18 -30 29 -30 26 0 -3 -11 4 -24 16 -46 43 -181 145 -286 217 -13
8 -29 21 -36 28 -8 7 -14 10 -14 5 0 -4 -4 -3 -8 3 -9 14 -119 84 -132 84 -6
0 -10 4 -10 8 0 5 -57 41 -127 81 -71 39 -135 76 -143 81 -19 11 -323 164
-330 165 -8 3 -42 17 -107 46 -35 15 -63 26 -63 23 0 -3 -12 1 -27 10 -30 15
-132 56 -154 60 -8 2 -21 6 -29 9 -56 24 -150 54 -154 49 -3 -3 -6 -1 -6 4 0
5 -8 11 -17 12 -30 3 -48 7 -58 13 -10 6 -118 33 -122 31 -2 -1 -21 5 -43 13
-22 8 -40 12 -40 9 0 -2 -8 0 -19 5 -10 6 -31 13 -47 15 -16 3 -54 10 -84 16
-30 7 -68 14 -85 16 -16 3 -36 7 -43 10 -16 5 -108 17 -134 18 -10 0 -18 3
-18 6 0 3 -8 6 -17 7 -22 1 -116 11 -163 18 -19 3 -62 8 -95 10 -33 2 -89 7
-125 10 -66 6 -517 14 -522 10z m442 -94 c0 -3 33 -6 73 -7 77 -1 228 -14 322
-28 17 -3 53 -8 80 -12 57 -8 80 -12 80 -14 0 -1 14 -3 30 -6 34 -4 70 -12 70
-14 0 -1 11 -3 25 -4 14 -1 52 -8 85 -15 33 -8 67 -15 75 -16 8 -2 16 -4 18
-5 1 -2 5 -3 10 -4 64 -15 120 -29 132 -33 8 -3 26 -8 39 -10 14 -2 34 -9 45
-16 12 -6 25 -10 29 -9 7 2 223 -69 277 -91 14 -6 27 -11 30 -11 11 -2 151
-58 210 -83 19 -9 86 -40 148 -69 62 -30 117 -54 123 -54 5 0 9 -5 9 -12 0 -6
3 -8 7 -5 3 4 11 3 17 -2 6 -4 52 -30 101 -56 50 -26 96 -52 103 -58 20 -16
75 -47 95 -53 9 -4 17 -10 17 -15 0 -5 5 -9 10 -9 6 0 23 -9 38 -19 15 -10 77
-52 137 -91 61 -40 112 -76 115 -79 3 -4 21 -18 40 -31 19 -13 37 -27 40 -30
3 -3 23 -18 45 -34 22 -16 45 -34 50 -40 6 -6 26 -23 45 -37 19 -15 45 -35 56
-45 12 -11 40 -35 64 -54 23 -19 61 -53 84 -75 23 -22 70 -66 103 -97 34 -32
60 -58 57 -58 -2 0 15 -17 38 -37 24 -21 44 -41 46 -44 2 -4 24 -30 50 -57 26
-28 63 -69 82 -92 19 -23 46 -52 60 -66 14 -13 22 -24 18 -24 -3 0 6 -13 20
-28 49 -52 80 -91 74 -97 -3 -3 0 -5 6 -5 5 0 19 -15 31 -32 11 -18 29 -43 41
-55 11 -13 18 -23 14 -23 -4 0 3 -8 14 -19 12 -10 22 -23 22 -28 0 -6 9 -18
20 -28 11 -10 20 -22 20 -26 0 -5 7 -17 15 -26 8 -10 15 -21 15 -25 0 -4 12
-20 25 -34 14 -15 25 -31 25 -36 0 -5 5 -14 10 -21 6 -7 29 -41 52 -77 39 -62
55 -89 114 -197 14 -27 30 -52 35 -57 5 -6 9 -18 9 -28 0 -10 4 -18 8 -18 5 0
14 -16 22 -35 8 -19 18 -35 24 -35 5 0 7 -2 4 -6 -3 -3 14 -45 38 -94 24 -49
44 -92 44 -96 0 -4 9 -25 19 -48 35 -75 58 -130 92 -221 18 -49 36 -91 40 -93
4 -2 5 -12 2 -22 -3 -11 0 -20 6 -20 5 0 8 -7 5 -15 -4 -8 -1 -15 7 -15 7 0
10 -3 6 -6 -3 -4 0 -22 8 -40 8 -19 12 -34 9 -34 -3 0 -2 -6 3 -12 4 -7 8 -17
8 -23 1 -5 4 -17 7 -25 10 -24 56 -191 64 -235 9 -46 11 -52 14 -62 1 -5 2
-11 1 -15 0 -5 2 -8 7 -8 4 0 7 -12 8 -27 1 -16 9 -64 18 -108 10 -44 19 -93
21 -110 3 -16 7 -43 9 -60 3 -16 7 -42 8 -57 1 -16 5 -28 8 -28 3 0 5 -15 6
-33 1 -17 4 -61 8 -97 13 -122 18 -185 20 -237 1 -28 4 -55 8 -58 4 -4 3 -17
-2 -29 -4 -13 -5 -28 -1 -35 14 -23 4 -538 -14 -656 -2 -16 -7 -57 -10 -90 -7
-69 -29 -218 -40 -275 -3 -14 -7 -38 -10 -55 -2 -16 -6 -39 -9 -50 -2 -11 -12
-51 -20 -90 -9 -38 -19 -78 -21 -88 -5 -17 -11 -42 -19 -82 -8 -33 -46 -169
-53 -185 -8 -18 -7 -17 -17 -60 -5 -19 -12 -39 -16 -45 -5 -5 -9 -14 -10 -20
-3 -13 -5 -20 -26 -85 -9 -30 -17 -57 -16 -60 0 -3 -6 -12 -13 -20 -7 -8 -13
-17 -13 -20 2 -9 -25 -85 -48 -135 -12 -28 -24 -57 -26 -65 -2 -8 -5 -17 -8
-20 -8 -7 -41 -83 -41 -95 -1 -5 -9 -21 -18 -35 -9 -14 -30 -54 -46 -90 -16
-36 -35 -72 -42 -81 -7 -8 -13 -20 -13 -26 0 -6 -7 -16 -15 -23 -9 -7 -13 -15
-11 -18 3 -3 -4 -18 -15 -33 -11 -16 -17 -29 -12 -29 4 0 3 -4 -3 -8 -6 -4
-21 -27 -35 -52 -13 -25 -30 -51 -36 -58 -7 -7 -13 -18 -13 -23 0 -9 -8 -21
-38 -54 -7 -8 -11 -17 -10 -19 2 -3 -4 -14 -13 -25 -10 -10 -20 -28 -24 -40
-3 -12 -11 -21 -16 -21 -5 0 -9 -7 -9 -15 0 -9 -7 -18 -15 -21 -8 -4 -15 -10
-15 -16 0 -12 -90 -139 -110 -155 -8 -7 -11 -13 -6 -13 5 0 -1 -8 -12 -19 -12
-10 -22 -23 -22 -30 0 -6 -3 -11 -7 -11 -5 0 -19 -17 -33 -37 -14 -20 -36 -47
-50 -60 -14 -13 -22 -23 -18 -23 3 0 -8 -15 -25 -34 -18 -18 -54 -60 -82 -92
-65 -77 -375 -386 -444 -444 -30 -25 -62 -53 -70 -62 -9 -10 -20 -18 -25 -18
-5 0 -16 -8 -25 -18 -9 -10 -34 -31 -56 -48 -22 -16 -46 -35 -53 -42 -8 -6
-44 -33 -80 -59 -37 -26 -69 -50 -72 -53 -3 -3 -29 -21 -57 -40 -29 -18 -53
-36 -53 -39 0 -3 -18 -15 -40 -25 -22 -11 -40 -23 -40 -28 0 -5 -4 -7 -9 -4
-5 3 -14 0 -20 -8 -7 -8 -53 -38 -104 -67 -134 -78 -161 -93 -277 -151 -58
-29 -106 -56 -108 -60 -2 -5 -10 -8 -17 -8 -8 0 -35 -11 -60 -25 -25 -14 -45
-23 -45 -19 0 3 -11 -1 -25 -10 -13 -9 -31 -16 -40 -16 -8 0 -15 -5 -15 -12 0
-6 -3 -8 -6 -5 -4 3 -16 1 -28 -5 -11 -7 -26 -13 -31 -14 -6 -1 -32 -11 -57
-23 -26 -11 -53 -21 -60 -21 -8 0 -18 -4 -23 -9 -6 -5 -48 -21 -95 -36 -47
-15 -94 -31 -105 -36 -25 -10 -106 -33 -122 -34 -6 0 -15 -4 -19 -8 -4 -4 -18
-7 -31 -7 -13 0 -23 -5 -23 -11 0 -5 -4 -8 -8 -5 -4 2 -48 -6 -97 -19 -91 -25
-112 -30 -175 -40 -19 -3 -42 -9 -50 -12 -8 -3 -24 -7 -35 -8 -21 -2 -75 -12
-114 -19 -12 -3 -42 -7 -65 -10 -22 -3 -57 -7 -76 -10 -96 -14 -205 -25 -281
-30 -26 -2 -51 -6 -57 -10 -6 -3 -13 -2 -16 3 -4 6 -18 6 -34 2 -24 -7 -577
-8 -577 -1 0 1 -29 4 -65 6 -36 2 -81 5 -100 8 -19 2 -60 7 -90 10 -119 14
-241 31 -284 41 -12 3 -32 7 -46 9 -14 2 -61 12 -105 21 -44 10 -87 19 -95 20
-8 2 -16 4 -17 4 -2 1 -6 2 -10 3 -5 1 -46 12 -92 24 -46 13 -88 21 -92 18 -5
-3 -9 -1 -9 3 0 7 -116 46 -145 49 -5 1 -21 6 -35 11 -14 6 -28 9 -32 6 -5 -2
-8 0 -8 4 0 5 -21 15 -47 22 -27 8 -55 18 -63 22 -40 19 -257 102 -267 102 -7
0 -13 4 -13 8 0 4 -10 11 -22 14 -34 10 -272 127 -279 138 -3 5 -10 9 -15 9
-11 1 -57 21 -64 28 -4 4 -37 23 -111 63 -28 14 -82 49 -89 57 -3 3 -18 12
-35 20 -16 8 -32 17 -35 20 -3 3 -30 21 -60 40 -30 19 -56 38 -58 42 -2 5 -8
8 -14 8 -5 0 -15 6 -22 13 -8 6 -24 19 -36 27 -27 18 -121 86 -135 97 -5 5
-36 28 -67 52 -32 24 -58 48 -58 54 0 6 -3 8 -6 5 -5 -6 -31 14 -91 69 -13 13
-25 23 -27 23 -12 0 -371 351 -420 411 -21 26 -137 161 -165 194 -26 29 -194
255 -217 290 -10 17 -23 35 -27 40 -5 6 -37 55 -72 110 -36 55 -68 105 -72
111 -9 11 -25 40 -85 154 -22 41 -44 79 -49 84 -5 6 -9 18 -9 27 0 10 -4 19
-9 21 -12 4 -166 331 -185 393 -3 11 -5 24 -5 29 0 5 -3 12 -8 15 -5 3 -24 49
-42 101 -18 52 -36 104 -41 115 -5 11 -14 40 -21 65 -6 25 -16 51 -21 58 -6 6
-8 12 -5 12 2 0 -6 37 -19 81 -13 45 -21 85 -18 90 3 5 1 9 -4 9 -6 0 -13 15
-16 33 -3 17 -8 41 -11 52 -15 59 -66 306 -71 345 -9 63 -12 79 -19 90 -3 6
-1 10 5 10 6 0 8 5 3 13 -9 14 -11 25 -17 92 -3 28 -5 50 -7 50 -1 0 -3 18 -4
40 -2 22 -6 76 -10 120 -12 158 -23 545 -16 545 3 0 7 42 8 93 2 113 12 237
28 357 4 30 9 66 10 80 1 14 5 36 9 50 3 14 8 39 10 55 3 17 7 39 9 50 3 11 8
40 12 65 4 25 13 70 20 100 8 30 16 66 19 80 22 117 142 513 157 518 4 2 6 9
3 17 -3 7 0 16 5 20 6 3 9 10 6 15 -3 5 -1 11 5 15 5 3 10 15 10 26 0 10 4 19
10 19 5 0 9 3 8 8 -3 10 23 84 38 107 7 11 14 25 15 30 3 18 12 39 60 143 27
56 48 105 48 109 -1 3 3 9 8 12 4 3 26 43 48 89 22 45 43 82 47 82 5 0 8 6 8
13 0 7 27 57 60 111 33 54 60 100 60 103 0 2 5 9 10 16 19 21 100 150 100 157
0 5 7 10 15 14 8 3 15 10 15 16 0 6 5 16 10 23 6 7 39 50 73 97 34 47 67 89
74 93 7 4 13 12 13 17 0 6 8 18 18 28 9 10 33 38 52 62 19 24 44 54 55 66 11
13 47 53 80 91 108 122 318 326 434 423 24 19 55 46 70 60 55 49 81 70 81 63
0 -4 6 0 13 8 6 9 32 31 57 50 25 18 50 37 55 42 81 64 250 177 264 177 5 0
11 4 13 8 2 5 32 26 68 48 36 21 67 42 68 47 2 4 8 7 12 7 5 0 32 13 60 30 27
16 50 26 50 22 0 -4 4 -2 8 4 10 14 182 106 182 97 0 -5 4 -3 8 2 15 21 195
102 392 178 198 76 184 71 225 82 17 4 35 10 40 14 6 3 15 6 21 7 6 1 48 13
95 28 46 14 95 28 109 30 14 3 26 5 28 5 1 1 4 0 5 -1 2 -2 11 3 20 10 9 8 20
11 25 8 5 -3 21 1 35 9 15 8 29 14 30 13 3 -1 98 14 117 19 8 2 24 6 35 8 11
2 34 7 50 10 17 4 44 8 60 10 17 2 31 4 33 4 5 2 8 3 70 15 39 9 62 10 62 4 0
-7 4 -7 13 0 6 5 41 13 77 16 36 4 82 9 103 12 21 3 78 7 128 9 50 2 93 5 95
7 6 7 524 5 524 -1z"/>
<path d="M5257 10154 c-2 -1 -185 -12 -309 -18 -20 -1 -40 -4 -43 -8 -4 -3
-20 -4 -36 -1 -16 2 -29 1 -29 -4 0 -4 -17 -8 -38 -9 -36 0 -101 -8 -172 -21
-19 -3 -38 -11 -42 -17 -5 -8 -8 -7 -8 2 0 7 -3 11 -7 9 -5 -3 -24 -8 -43 -11
-67 -11 -95 -17 -115 -23 -11 -4 -29 -8 -40 -9 -11 0 -40 -7 -65 -14 -25 -7
-52 -14 -60 -15 -8 -2 -16 -4 -17 -5 -2 -2 -7 -4 -13 -5 -5 -1 -13 -4 -17 -5
-5 -1 -11 -2 -15 -1 -3 0 -30 -7 -60 -16 -29 -9 -57 -17 -63 -19 -5 -1 -30 -8
-55 -15 -25 -7 -47 -13 -50 -13 -3 -1 -11 -5 -18 -9 -7 -5 -24 -11 -39 -13
-15 -3 -31 -8 -37 -12 -6 -4 -14 -7 -18 -8 -5 -1 -9 -2 -10 -4 -2 -1 -10 -3
-18 -5 -8 -2 -28 -8 -45 -15 -16 -6 -32 -12 -35 -12 -3 -1 -34 -13 -70 -28
-36 -15 -69 -28 -75 -29 -5 -2 -28 -11 -50 -20 -22 -10 -55 -24 -72 -32 -18
-8 -33 -18 -33 -22 0 -5 -4 -6 -9 -2 -11 6 -61 -15 -61 -27 0 -4 -6 -8 -14 -8
-51 0 -588 -314 -727 -424 -14 -12 -36 -28 -49 -36 -13 -8 -37 -26 -54 -40
-38 -31 -43 -35 -141 -113 -44 -36 -97 -80 -117 -100 -21 -20 -38 -34 -38 -32
0 3 -19 -15 -43 -38 -23 -23 -62 -59 -85 -79 -23 -21 -41 -38 -39 -38 1 0 -40
-44 -93 -98 -125 -129 -165 -173 -179 -200 -7 -13 -16 -20 -21 -17 -5 3 -11
-3 -14 -12 -3 -10 -24 -38 -45 -62 -22 -25 -38 -48 -35 -53 3 -4 -1 -8 -8 -8
-14 -1 -141 -170 -146 -195 -2 -8 -7 -15 -12 -15 -4 0 -25 -27 -46 -60 -22
-33 -43 -60 -47 -60 -5 0 -5 -4 -2 -10 3 -5 1 -10 -4 -10 -6 0 -11 -4 -11 -9
0 -8 -96 -168 -117 -196 -10 -13 -63 -112 -109 -205 -21 -41 -42 -78 -48 -82
-6 -4 -7 -8 -3 -8 4 0 -3 -20 -17 -44 -13 -24 -22 -47 -19 -50 4 -3 1 -6 -5
-6 -7 0 -12 -4 -12 -10 0 -5 -11 -33 -24 -62 -25 -57 -38 -88 -41 -100 -2 -5
-4 -11 -5 -15 -1 -5 -2 -11 -1 -15 0 -5 -4 -8 -11 -8 -6 0 -8 -3 -5 -7 4 -3 3
-11 -2 -17 -7 -9 -44 -111 -46 -126 0 -3 -4 -11 -8 -17 -6 -10 -60 -167 -71
-208 -2 -5 -6 -17 -9 -25 -5 -13 -29 -100 -41 -150 -2 -8 -16 -64 -31 -125
-15 -60 -28 -119 -31 -130 -2 -11 -6 -31 -9 -45 -11 -57 -18 -97 -20 -125 -2
-16 -4 -30 -5 -30 -2 0 -8 -34 -16 -90 -3 -27 -8 -61 -10 -75 -12 -86 -15
-112 -19 -170 -2 -36 -5 -65 -5 -65 -5 0 -12 -227 -13 -375 0 -204 10 -399 28
-545 2 -16 6 -48 9 -70 3 -22 8 -56 12 -75 3 -19 8 -51 10 -70 2 -19 15 -91
29 -160 14 -69 27 -135 29 -147 2 -12 9 -37 15 -55 6 -18 12 -44 15 -58 16
-86 86 -314 98 -318 4 -2 6 -7 3 -12 -5 -8 39 -134 71 -207 8 -17 14 -34 14
-38 0 -4 6 -21 14 -38 7 -18 29 -68 47 -112 18 -44 39 -87 45 -95 7 -8 13 -19
13 -25 2 -17 13 -50 20 -55 3 -3 23 -39 44 -80 21 -41 56 -106 77 -145 22 -38
47 -85 56 -102 9 -18 20 -33 25 -33 5 0 8 -4 7 -8 -3 -10 99 -175 125 -203 9
-11 17 -22 17 -26 0 -3 18 -30 40 -59 22 -29 40 -56 40 -59 0 -3 8 -13 18 -23
9 -11 26 -32 37 -47 30 -42 69 -90 77 -93 5 -2 8 -9 8 -16 0 -6 9 -18 20 -26
11 -8 20 -18 20 -23 0 -5 12 -21 28 -37 15 -16 44 -49 64 -73 21 -24 59 -66
85 -94 27 -27 67 -71 91 -96 23 -26 42 -45 42 -44 0 1 40 -36 88 -83 49 -47
113 -105 142 -130 30 -25 64 -55 76 -67 13 -13 26 -23 28 -23 5 0 40 -28 70
-55 6 -6 29 -24 51 -40 22 -17 46 -35 53 -42 7 -7 26 -20 42 -30 17 -9 30 -21
30 -25 0 -4 7 -8 15 -8 8 0 15 -3 15 -8 0 -4 8 -12 19 -17 26 -14 195 -128
201 -136 3 -3 15 -9 28 -13 12 -4 22 -12 22 -17 0 -6 4 -8 9 -5 5 3 14 -1 21
-9 7 -8 19 -15 26 -15 8 0 14 -4 14 -10 0 -5 4 -10 9 -10 6 0 38 -17 73 -37
35 -21 66 -38 70 -38 3 0 9 -3 13 -6 3 -4 41 -24 83 -45 42 -21 80 -42 83 -47
3 -5 8 -8 10 -6 2 1 25 -8 51 -20 59 -26 90 -38 102 -39 5 0 12 -4 15 -9 3 -5
40 -21 81 -37 41 -16 89 -34 105 -41 17 -7 71 -27 120 -44 50 -18 97 -35 105
-38 8 -4 17 -7 20 -7 7 -1 92 -27 110 -34 8 -3 21 -6 29 -8 8 -1 26 -6 40 -10
14 -4 29 -7 34 -6 4 1 7 -2 7 -7 0 -5 9 -7 20 -4 11 3 20 1 20 -4 0 -5 8 -9
18 -10 9 -1 31 -5 47 -8 17 -4 45 -9 63 -12 17 -3 32 -9 32 -13 0 -4 8 -7 18
-7 9 1 44 -5 76 -12 33 -7 69 -14 80 -16 12 -1 35 -5 51 -8 17 -3 52 -8 78
-12 27 -4 59 -9 70 -11 21 -5 35 -7 137 -18 325 -38 824 -38 1085 0 28 4 64 9
80 10 17 1 30 3 30 4 0 1 11 3 25 5 43 4 113 15 165 25 28 6 64 12 80 14 17 3
48 10 70 16 22 5 54 12 70 15 17 3 57 13 90 23 33 10 67 17 75 17 8 0 17 2 20
5 5 5 91 30 120 35 8 1 22 5 30 8 8 3 44 15 80 27 36 12 72 25 80 28 8 3 18 6
23 7 4 2 9 4 12 5 3 1 8 3 13 5 4 1 21 7 37 14 17 7 35 14 40 15 6 2 19 7 30
11 11 4 54 21 95 37 75 29 124 51 297 135 51 24 95 43 99 43 4 -1 10 2 13 7 3
5 53 35 111 68 58 32 136 78 173 102 37 23 72 43 77 43 6 0 10 5 10 10 0 6 7
10 15 10 8 0 15 4 15 8 0 5 12 15 28 23 15 7 43 26 62 41 19 16 40 28 47 28 7
0 13 4 13 9 0 5 16 19 35 31 20 12 41 27 48 33 6 7 30 25 52 42 22 16 45 34
51 40 7 5 55 46 108 89 53 44 96 84 96 88 0 4 5 8 11 8 13 0 332 319 404 404
28 33 62 72 77 88 14 15 25 28 22 28 -2 0 4 9 13 19 23 25 24 26 121 153 45
59 82 112 82 117 0 5 4 11 8 13 11 4 112 158 112 169 0 5 4 9 9 9 5 0 12 8 15
18 3 9 22 42 41 71 20 30 37 59 38 65 1 6 5 13 8 16 17 14 199 368 199 388 0
7 5 12 10 12 6 0 10 8 10 19 0 10 7 24 15 31 8 7 12 16 9 22 -3 5 -2 14 4 21
5 7 23 50 41 97 18 47 37 94 41 105 5 11 20 54 35 95 15 41 29 82 32 90 7 18
6 13 23 70 14 48 18 63 23 83 1 6 6 18 11 25 4 7 6 16 3 18 -3 3 1 21 9 40 8
19 11 34 8 34 -4 0 -1 7 6 15 7 8 10 15 7 15 -3 0 3 30 13 68 10 37 21 81 24
97 2 17 7 39 10 50 19 83 23 105 18 110 -3 3 -1 5 4 5 5 0 9 15 10 33 0 29 6
68 18 137 8 46 23 162 31 250 23 251 23 653 -1 885 -3 33 -7 76 -8 95 -2 19
-6 49 -9 65 -4 17 -9 50 -12 75 -2 25 -7 59 -10 75 -3 17 -7 47 -8 67 -1 21
-5 38 -9 38 -5 0 -8 12 -8 28 -1 15 -7 54 -15 86 -8 33 -12 63 -9 68 3 4 0 8
-7 8 -7 0 -10 3 -6 6 3 3 2 16 -3 28 -4 13 -11 40 -14 60 -4 21 -9 42 -12 47
-3 5 -7 18 -9 28 -12 64 -78 281 -94 311 -4 8 -14 39 -21 68 -8 28 -17 52 -22
52 -4 0 -7 3 -7 8 1 4 0 10 -1 15 -1 4 -3 10 -5 15 -1 4 -5 16 -10 27 -4 11
-17 43 -28 70 -10 28 -24 61 -30 75 -6 14 -11 27 -12 30 -4 20 -177 373 -185
380 -4 3 -13 20 -21 38 -8 17 -16 32 -20 32 -3 0 -11 16 -19 35 -8 19 -18 35
-22 35 -5 0 -6 5 -3 10 3 6 2 10 -3 10 -5 0 -15 14 -22 30 -7 17 -17 30 -22
30 -5 0 -7 4 -4 8 3 5 -4 18 -14 30 -11 12 -20 24 -20 27 0 9 -124 189 -132
193 -5 2 -8 10 -8 18 0 8 -3 14 -7 14 -5 0 -19 17 -33 37 -14 21 -30 45 -37
53 -75 97 -137 175 -151 189 -9 10 -39 45 -67 76 -53 62 -227 246 -258 274
-11 9 -49 45 -87 81 -37 36 -87 81 -110 99 -24 19 -48 40 -54 46 -6 6 -49 41
-96 78 -47 37 -95 76 -107 86 -13 11 -23 16 -23 13 0 -4 -4 -2 -8 3 -4 6 -23
22 -42 35 -19 13 -37 27 -40 30 -3 4 -54 39 -115 78 -60 40 -115 77 -122 82
-7 6 -17 10 -23 10 -5 0 -10 5 -10 10 0 6 -5 10 -10 10 -6 0 -38 17 -73 38
-34 20 -76 44 -92 52 -17 8 -32 17 -35 20 -3 3 -27 16 -55 30 -27 14 -53 29
-56 33 -3 5 -9 8 -13 8 -3 -1 -44 17 -91 39 -103 49 -138 64 -147 62 -5 -1 -8
2 -8 8 0 5 -6 10 -13 10 -7 0 -31 9 -53 19 -21 10 -58 25 -81 32 -24 6 -43 16
-43 21 0 5 -4 7 -8 4 -5 -3 -20 1 -35 9 -15 8 -27 11 -27 8 0 -3 -7 1 -17 8
-9 8 -18 13 -20 12 -1 -2 -4 -3 -5 -2 -2 0 -10 2 -18 4 -8 2 -46 16 -83 30
-38 14 -72 23 -77 20 -5 -3 -10 -1 -12 3 -3 9 -294 90 -346 97 -15 2 -27 4
-27 5 0 3 -97 24 -165 35 -19 4 -71 12 -114 20 -44 8 -83 12 -87 9 -4 -2 -10
-1 -13 4 -3 5 -28 8 -56 8 -27 -1 -51 2 -53 5 -2 7 -103 17 -252 25 -91 5
-433 12 -438 8z m438 -1268 c28 -2 50 -5 50 -6 0 -1 14 -3 30 -5 17 -1 56 -9
87 -18 31 -8 59 -12 62 -9 3 3 6 0 6 -6 0 -7 9 -12 20 -12 11 0 28 -4 38 -9 9
-5 28 -13 42 -19 35 -13 164 -76 170 -82 3 -3 16 -11 30 -18 21 -11 118 -79
155 -109 6 -5 32 -26 59 -48 95 -77 168 -171 236 -305 96 -191 177 -456 157
-513 -6 -19 -6 -36 1 -50 16 -35 30 -79 36 -117 3 -19 8 -46 11 -60 3 -14 8
-43 11 -65 2 -21 7 -41 9 -43 2 -3 -3 -21 -11 -40 -15 -36 -13 -87 5 -187 6
-38 5 -42 -34 -77 l-40 -38 21 -17 c46 -38 55 -77 58 -263 2 -91 -2 -152 -11
-189 -11 -39 -12 -61 -4 -80 22 -55 21 -78 -6 -90 -27 -12 -26 -24 6 -91 15
-31 15 -43 4 -100 -7 -36 -15 -81 -19 -100 -3 -19 -22 -97 -41 -174 -76 -305
-176 -530 -289 -656 -39 -43 -67 -49 -92 -20 -11 13 -13 11 -9 -15 2 -16 8
-38 12 -48 6 -15 -7 -33 -64 -88 -39 -38 -74 -69 -79 -69 -4 0 -21 -13 -38
-28 -17 -15 -70 -54 -117 -87 -71 -50 -86 -65 -87 -87 0 -14 21 -86 46 -160
33 -94 47 -150 48 -193 1 -47 5 -63 21 -75 11 -8 23 -14 28 -12 10 3 9 -36 -2
-74 -7 -26 -4 -35 28 -72 20 -22 50 -69 68 -104 34 -68 103 -217 103 -223 0
-3 11 -28 24 -57 32 -71 139 -351 226 -589 59 -160 69 -198 60 -217 -14 -31
-13 -42 4 -42 25 0 69 -68 80 -124 14 -66 16 -109 8 -139 -9 -32 -7 -38 18
-62 52 -50 167 -296 270 -578 24 -68 30 -97 25 -125 -10 -55 -41 -108 -81
-138 -32 -25 -44 -28 -122 -28 -48 -1 -90 -5 -94 -11 -5 -6 -8 -5 -8 2 0 7 -6
11 -12 8 -7 -2 -49 -6 -93 -9 -44 -3 -91 -8 -104 -11 -14 -2 -30 0 -37 6 -9 7
-38 8 -86 3 -40 -4 -121 -8 -179 -9 -100 0 -108 1 -147 28 -46 33 -88 88 -102
138 -6 19 -10 72 -11 119 -1 84 -1 86 -29 98 -36 16 -64 75 -94 196 -13 50
-34 116 -48 146 -13 30 -35 84 -47 120 -13 36 -27 74 -31 85 -12 31 -63 201
-120 399 -41 142 -50 184 -41 202 8 18 6 27 -13 49 -26 30 -49 97 -70 200 -7
39 -25 101 -39 138 -14 37 -33 98 -42 135 -9 37 -34 105 -55 152 -61 136 -69
154 -104 252 -34 93 -58 193 -58 236 0 13 -9 29 -20 35 -10 7 -27 30 -37 52
-19 43 -49 160 -54 210 -2 17 -7 36 -10 43 -12 18 -35 3 -42 -28 -7 -33 -25
-43 -80 -44 l-40 -1 0 -295 c0 -162 3 -330 7 -372 5 -54 3 -100 -8 -155 -14
-73 -24 -143 -29 -203 -1 -14 5 -47 12 -74 12 -39 12 -50 2 -57 -10 -6 -10
-16 -1 -46 26 -86 30 -167 29 -583 l-2 -435 -47 -98 -47 -97 32 -16 c18 -9 35
-22 39 -28 4 -6 8 -65 8 -132 0 -107 -2 -123 -20 -142 -26 -28 -26 -86 0 -112
24 -24 25 -32 5 -71 -15 -28 -89 -83 -110 -82 -229 18 -305 18 -345 3 -3 -1
-8 -2 -12 -1 -5 0 -8 -3 -8 -7 0 -4 -16 -7 -35 -7 -20 1 -38 -1 -39 -4 -3 -5
-231 -6 -231 -1 0 1 -9 3 -20 5 -76 14 -129 68 -143 146 -9 50 -8 893 2 1099
9 193 19 314 32 375 10 47 9 65 -4 155 -22 156 -22 172 0 233 23 64 21 144 -5
197 -12 23 -13 38 -6 65 7 24 5 58 -5 117 -14 74 -21 131 -32 233 -3 36 -16
315 -18 400 -1 33 4 89 10 125 12 67 11 114 -4 213 -8 51 -6 63 15 108 18 37
23 58 17 77 -4 15 -8 122 -9 237 -2 188 0 213 16 243 18 31 18 35 3 64 -9 17
-18 49 -20 72 -7 86 -17 546 -18 895 -1 317 1 372 16 419 16 51 16 58 1 86
-15 27 -17 89 -17 502 l-1 470 25 -4 c14 -2 32 -6 40 -9 31 -12 38 -10 44 10
6 25 0 37 -20 37 -8 0 -14 5 -14 10 0 6 -5 10 -12 10 -17 0 -65 58 -72 86 -4
13 -3 32 2 42 5 9 7 35 4 57 -25 218 30 328 179 353 42 7 1446 6 1534 -2z"/>
<path d="M5308 8018 c-2 -5 -13 -10 -26 -11 -12 0 -22 -4 -22 -8 0 -4 -82 -8
-182 -9 -100 0 -184 -3 -186 -5 -7 -7 -13 -154 -18 -530 -4 -209 -10 -387 -14
-395 -5 -9 -2 -42 6 -75 29 -123 41 -226 36 -308 -7 -112 -7 -206 1 -307 11
-130 17 -234 22 -355 4 -117 22 -190 73 -295 l27 -55 45 2 c91 4 225 12 225
13 0 2 109 13 138 14 15 0 27 3 27 6 0 3 8 6 18 6 34 2 75 13 91 26 20 17 76
17 77 1 1 -7 2 -22 3 -33 1 -23 10 -25 34 -7 15 11 15 15 2 41 -8 15 -15 34
-15 41 0 7 33 36 73 66 39 29 73 56 75 60 2 4 12 5 22 2 11 -3 20 -1 20 3 4
62 16 128 31 167 20 49 23 98 10 132 -5 11 0 49 11 92 25 98 27 138 11 200 -7
29 -11 65 -9 80 5 29 12 102 21 212 3 40 1 69 -6 77 -8 10 -8 18 -1 27 11 13
9 230 -3 347 -25 255 -72 441 -140 555 -36 61 -132 158 -147 149 -4 -3 -8 0
-8 6 0 6 -4 8 -10 5 -5 -3 -10 -1 -10 4 0 6 -8 11 -19 11 -10 0 -36 7 -57 16
-41 17 -70 24 -116 27 -15 1 -28 4 -28 7 0 9 -79 7 -82 -2z"/>
</g>
</svg>
